<svg class="h-10 w-10" xmlns="http://www.w3.org/2000/svg" viewBox="0 0 44.6 57.264">
                            <g id="Group_4" data-name="Group 4" transform="translate(-842 -347)">
                                <g id="logo" transform="translate(842 347)">
                                <path id="Path_1" data-name="Path 1" d="M251.728,262.39a11.285,11.285,0,0,0-3.335,8,10.865,10.865,0,0,0,3.21,7.749l.313.326,1.11,1.11-3.392,3.392-1.147-1.147-.313-.326a15.636,15.636,0,0,1-4.583-11.1,16.087,16.087,0,0,1,4.746-11.4h0a16.125,16.125,0,0,1,11.41-4.752,15.592,15.592,0,0,1,15.448,12.9l-4.47,4.47-.1-2.194a10.808,10.808,0,0,0-10.852-10.376,11.323,11.323,0,0,0-8.018,3.348h0Z" transform="translate(-243.458 -254.24)" fill="#a2272c"></path>
                                <path id="Path_2" data-name="Path 2" d="M252.941,294.048l-2.784,2.777L265.711,312.4l14.125-14.131a11.316,11.316,0,0,0,3.342-8.025A10.8,10.8,0,0,0,272.8,279.384l-2.188-.094,4.47-4.47a15.585,15.585,0,0,1,12.9,15.422,16.162,16.162,0,0,1-4.752,11.416l-17.516,17.523L243.38,296.825l6.169-6.169Z" transform="translate(-243.38 -261.918)" fill="#699db1"></path>
                                <path id="Path_3" data-name="Path 3" d="M265.991,288.3l-2.959-2.959-3.022,3.022,12.651,12.651-3.423,3.36L253.22,288.353l3.392-3.392,3.022-3.022-1.467-1.467a6.827,6.827,0,0,1-2-4.834,6.972,6.972,0,0,1,2.05-4.94l.15-.15.044-.038a6.972,6.972,0,0,1,4.765-1.881,6.815,6.815,0,0,1,6.834,6.821,7,7,0,0,1-2.05,4.94l-1.542,1.536,2.915,2.922Zm-5.015-12.658a2.025,2.025,0,0,0,.6,1.442l1.467,1.467,1.536-1.536a2.169,2.169,0,0,0,.627-1.549,2.019,2.019,0,0,0-2.031-2.038,2.188,2.188,0,0,0-1.542.627l-.119.119a2.169,2.169,0,0,0-.552,1.448" transform="translate(-247.051 -259.608)" fill="#786631"></path>
                                <path id="Path_4" data-name="Path 4" d="M280.257,308.516l8.006-7.956a7,7,0,0,0,2.056-4.947,6.815,6.815,0,0,0-6.834-6.834,6.99,6.99,0,0,0-4.94,2.056l-1.567,1.542h0l-3.4,3.417L277,299.181l4.934-4.934a2.188,2.188,0,0,1,1.549-.627,1.994,1.994,0,0,1,1.442.6,2.019,2.019,0,0,1,.589,1.442,2.2,2.2,0,0,1-.627,1.555l-7.987,7.962Z" transform="translate(-254.647 -267.126)" fill="#fbc431"></path>
                                </g>
                            </g>
                        </svg>